<?xml version="1.0" encoding="UTF-8" standalone="no"?>
<svg
   width="926.35052"
   height="2454.5527"
   viewBox="0 0 245.0969 649.43376"
   version="1.1"
   id="svg1013"
   inkscape:version="1.2.2 (1:1.2.2+202212051552+b0a8486541)"
   xml:space="preserve"
   sodipodi:docname="thermometer_1.svg"
   inkscape:export-filename="../../../../Entwicklung/PycharmProjects/wnfwetter/bbb/www/img/thermometer_1.svg"
   inkscape:export-xdpi="90.0181"
   inkscape:export-ydpi="90.0181"
   xmlns:inkscape="http://www.inkscape.org/namespaces/inkscape"
   xmlns:sodipodi="http://sodipodi.sourceforge.net/DTD/sodipodi-0.dtd"
   xmlns:xlink="http://www.w3.org/1999/xlink"
   xmlns="http://www.w3.org/2000/svg"
   xmlns:svg="http://www.w3.org/2000/svg"
   xmlns:rdf="http://www.w3.org/1999/02/22-rdf-syntax-ns#"
   xmlns:cc="http://creativecommons.org/ns#"
   xmlns:dc="http://purl.org/dc/elements/1.1/"><defs
     id="defs1007"><linearGradient
       id="linearGradient5816"
       y2="501.79999"
       gradientUnits="userSpaceOnUse"
       y1="501.79999"
       x2="358.5"
       x1="271.59"
       inkscape:collect="always"><stop
         id="stop3620"
         style="stop-color:#ffffff"
         offset="0" /><stop
         id="stop3622"
         style="stop-color:#ffffff;stop-opacity:0"
         offset="1" /></linearGradient><linearGradient
       inkscape:collect="always"
       xlink:href="#linearGradient5816"
       id="linearGradient3023"
       gradientUnits="userSpaceOnUse"
       x1="271.59"
       y1="501.79999"
       x2="358.5"
       y2="501.79999"
       gradientTransform="matrix(0.76535344,0,0,0.81073889,-119.81205,-64.837248)" /></defs><sodipodi:namedview
     id="base"
     pagecolor="#ffffff"
     bordercolor="#666666"
     borderopacity="1.0"
     inkscape:pageopacity="1"
     inkscape:pageshadow="2"
     inkscape:zoom="0.19067383"
     inkscape:cx="532.32266"
     inkscape:cy="1266.5608"
     inkscape:document-units="mm"
     inkscape:current-layer="layer1"
     inkscape:document-rotation="0"
     showgrid="false"
     units="px"
     inkscape:showpageshadow="false"
     inkscape:pagecheckerboard="0"
     inkscape:deskcolor="#d1d1d1"
     inkscape:window-width="1920"
     inkscape:window-height="1013"
     inkscape:window-x="0"
     inkscape:window-y="0"
     inkscape:window-maximized="1" /><metadata
     id="metadata1010"><rdf:RDF><cc:Work
         rdf:about=""><dc:format>image/svg+xml</dc:format><dc:type
           rdf:resource="http://purl.org/dc/dcmitype/StillImage" /></cc:Work></rdf:RDF></metadata><g
     inkscape:label="Ebene 1"
     inkscape:groupmode="layer"
     id="layer1"
     transform="translate(0.41164437,-7.6381216)"><g
       id="g11031"><path
         id="rect1427"
         style="fill:#d0d07f;stroke:#000000;stroke-width:3.91914;stroke-linejoin:round"
         d="m 61.17888,20.234848 c -24.223434,0 -43.739947,20.443356 -43.739947,45.859213 V 593.61392 c 0,25.40975 19.516513,45.85996 43.739947,45.85996 h 120.28295 c 24.23108,0 43.72463,-20.45021 43.72463,-45.85996 V 66.094061 c 0,-25.415857 -19.49355,-45.859213 -43.72463,-45.859213 z M 121.3127,37.19202 c 7.31678,0 13.27123,6.219262 13.27123,13.901115 0,7.676495 -5.95445,13.921776 -13.27123,13.921776 -7.32444,0 -13.25592,-6.245281 -13.25592,-13.921776 0,-7.681853 5.93148,-13.901115 13.25592,-13.901115 z" /><path
         inkscape:connector-curvature="0"
         d="m 121.3202,84.646787 c -9.68172,0 -17.48067,8.253327 -17.48067,18.517283 v 434.22362 c 0,0.38106 0.0995,0.73779 0.12245,1.11884 -8.434199,5.95084 -13.99832,16.08506 -13.99832,27.61376 0,18.33082 14.05189,33.21597 31.35653,33.21597 17.30464,0 31.33357,-14.88515 31.33357,-33.21597 0,-11.52059 -5.55646,-21.6305 -13.9677,-27.58943 0.0229,-0.38915 0.12246,-0.75398 0.12246,-1.14317 V 103.16407 c 0,-10.263956 -7.79897,-18.517283 -17.48834,-18.517283 z"
         style="fill:url(#linearGradient3023);stroke:#000000;stroke-width:3.93858;stroke-linejoin:round"
         id="rect2161" /><path
         id="path5818"
         style="fill:none;stroke:#000000;stroke-width:0.836148px"
         d="M 81.483707,185.88718 H 207.93541" /><path
         id="text5857"
         style="fill:#f10303;stroke-width:0.765352"
         d="m 198.76647,176.29731 h -2.99254 v 5.60238 h -3.16091 v -5.60238 h -10.53891 v -2.25015 l 9.19955,-16.40153 h 4.50027 v 15.8811 h 2.99254 v 2.77058 m -6.15345,-2.77058 v -13.16409 l -7.51576,13.16409 h 7.51576 m 15.94997,-16.34795 c 2.51037,0 4.40844,1.09445 5.69424,3.26805 1.27814,2.18126 1.92103,5.3039 1.92103,9.39089 0,4.0181 -0.64289,7.11014 -1.92103,9.27609 -1.2858,2.16595 -3.18387,3.25275 -5.69424,3.25275 -2.49506,0 -4.38548,-1.0868 -5.67127,-3.26806 -1.2858,-2.17361 -1.92869,-5.26564 -1.92869,-9.26078 0,-4.04872 0.64289,-7.16371 1.92869,-9.35262 1.28579,-2.20422 3.17621,-3.30632 5.67127,-3.30632 m 0,22.64681 c 1.43121,0 2.50271,-0.78067 3.21448,-2.32667 0.71944,-1.55368 1.08681,-4.10996 1.08681,-7.6612 0,-3.5895 -0.36737,-6.16109 -1.08681,-7.70711 -0.71177,-1.55367 -1.78327,-2.33433 -3.21448,-2.33433 -1.40825,0 -2.47209,0.7577 -3.17622,2.26545 -0.71177,1.50009 -1.07148,4.09464 -1.07148,7.77599 0,3.62777 0.35971,6.19936 1.07148,7.71477 0.70413,1.5154 1.76797,2.2731 3.17622,2.2731" /><path
         id="path5824"
         style="fill:none;stroke:#000000;stroke-width:0.837527px"
         d="M 32.814882,237.50261 H 159.67987" /><path
         id="text5861"
         style="fill:#f10303;stroke-width:0.765352"
         d="m 46.262142,224.2467 c 1.14803,0.26786 2.074108,0.81126 2.770581,1.63785 0.704123,0.81893 1.048534,1.76031 1.048534,2.82415 0,1.69144 -0.658206,3.10734 -1.98992,4.25537 -1.324062,1.14039 -2.90069,1.70675 -4.722231,1.70675 -1.56132,0 -2.984879,-0.34442 -4.278326,-1.02558 l 0.551055,-1.93634 c 1.285793,0.61227 2.556279,0.91842 3.81146,0.91842 1.209258,0 2.196563,-0.33676 2.961918,-1.01026 0.757699,-0.67352 1.140376,-1.5996 1.140376,-2.77059 0,-1.02558 -0.436252,-1.86747 -1.308755,-2.53331 -0.864849,-0.65822 -1.997571,-0.99497 -3.398169,-0.99497 h -0.49748 v -2.00523 h 0.07654 c 1.31641,0 2.433824,-0.31379 3.336942,-0.94137 0.918425,-0.63525 1.369983,-1.46949 1.369983,-2.50272 0,-0.8572 -0.329104,-1.54601 -0.994959,-2.06645 -0.658204,-0.52809 -1.523053,-0.79597 -2.579241,-0.79597 -0.964345,0 -2.089416,0.2832 -3.390515,0.84954 l -0.390332,-2.00522 c 1.369982,-0.59698 2.671083,-0.88781 3.887994,-0.88781 1.737355,0 3.176218,0.45922 4.301289,1.38529 1.140376,0.91077 1.71439,2.08175 1.71439,3.49767 0,0.96434 -0.344408,1.87511 -1.025572,2.717 -0.681164,0.84189 -1.477133,1.36998 -2.395557,1.57663 v 0.10715 m 12.980394,-9.28374 c 1.966958,0 3.451743,0.84953 4.454357,2.55628 1.010266,1.69908 1.507745,4.14821 1.507745,7.34739 0,3.14561 -0.497479,5.56412 -1.507745,7.2632 -1.002614,1.69144 -2.487399,2.54098 -4.454357,2.54098 -1.951651,0 -3.428783,-0.84954 -4.43905,-2.55628 -1.002612,-1.70674 -1.500091,-4.1176 -1.500091,-7.2479 0,-3.16856 0.497479,-5.61004 1.500091,-7.32444 1.010267,-1.72204 2.487399,-2.57923 4.43905,-2.57923 m 0,17.71793 c 1.125071,0 1.966958,-0.60463 2.518012,-1.81389 0.566362,-1.22456 0.849543,-3.22214 0.849543,-6.00037 0,-2.80884 -0.283193,-4.82173 -0.849543,-6.03098 -0.551054,-1.21691 -1.392941,-1.8292 -2.518012,-1.8292 -1.102109,0 -1.928691,0.58932 -2.487399,1.77562 -0.551055,1.17865 -0.834234,3.19918 -0.834234,6.08456 0,2.83945 0.283194,4.85234 0.834234,6.03864 0.558708,1.17864 1.38529,1.77562 2.487399,1.77562" /><path
         id="path5828"
         style="fill:none;stroke:#000000;stroke-width:0.837527px"
         d="M 32.814882,340.73348 H 159.67987" /><path
         id="text5865"
         style="fill:#000000;stroke-width:0.765352"
         d="m 46.47644,338.05475 h -2.472091 v -16.66938 l -3.367556,2.04347 v -2.28839 l 3.497666,-2.15066 h 2.341981 v 19.06496 M 59.242536,318.7066 c 1.966958,0 3.451745,0.84956 4.454357,2.55629 1.010267,1.70674 1.507745,4.15588 1.507745,7.3474 0,3.1456 -0.497478,5.57178 -1.507745,7.26321 -1.002612,1.69907 -2.487399,2.54098 -4.454357,2.54098 -1.95165,0 -3.428783,-0.84954 -4.43905,-2.55629 -1.002612,-1.6991 -1.500091,-4.1176 -1.500091,-7.2479 0,-3.16855 0.497479,-5.61003 1.500091,-7.31677 1.010267,-1.72206 2.4874,-2.58692 4.43905,-2.58692 m 0,17.71795 c 1.125071,0 1.966958,-0.60463 2.518012,-1.81388 0.566362,-1.22458 0.849544,-3.22215 0.849544,-6.00038 0,-2.80886 -0.283194,-4.81409 -0.849544,-6.03097 -0.551054,-1.21692 -1.392941,-1.82922 -2.518012,-1.82922 -1.102109,0 -1.928691,0.59699 -2.487399,1.77564 -0.551055,1.17862 -0.834233,3.20682 -0.834233,6.08455 0,2.83948 0.283193,4.85234 0.834233,6.03865 0.558708,1.1863 1.38529,1.77561 2.487399,1.77561" /><path
         id="path5836"
         style="fill:none;stroke:#000000;stroke-width:0.837527px"
         d="M 32.814882,443.96436 H 159.67987" /><path
         id="text5873"
         style="fill:#08b2f4;stroke-width:0.765352"
         d="m 46.614204,434.78012 h -7.990291 v -2.31137 h 7.990291 v 2.31137 m 9.498035,6.00039 h -2.479744 v -16.66942 l -3.3599,2.0435 v -2.28075 l 3.497662,-2.15829 h 2.341982 v 19.06496 m 12.766096,-19.34815 c 1.96696,0 3.451744,0.85719 4.454357,2.55628 1.002613,1.70674 1.507746,4.15587 1.507746,7.3474 0,3.15324 -0.505133,5.57175 -1.507746,7.26319 -1.002613,1.69909 -2.487397,2.54864 -4.454357,2.54864 -1.95165,0 -3.436437,-0.85721 -4.439049,-2.55628 -1.002613,-1.70673 -1.507746,-4.12528 -1.507746,-7.25555 0,-3.16092 0.505133,-5.60239 1.507746,-7.31679 1.002612,-1.72204 2.487399,-2.58689 4.439049,-2.58689 m 0,17.72559 c 1.125071,0 1.959307,-0.6123 2.518016,-1.82155 0.56636,-1.21692 0.84954,-3.21448 0.84954,-6.00036 0,-2.80884 -0.283192,-4.81408 -0.84954,-6.02333 -0.558709,-1.22459 -1.392945,-1.82922 -2.518016,-1.82922 -1.102108,0 -1.928691,0.58933 -2.487396,1.77565 -0.558708,1.17098 -0.834236,3.19915 -0.834236,6.0769 0,2.84712 0.275528,4.85998 0.834236,6.03862 0.558705,1.1863 1.385288,1.78329 2.487396,1.78329" /><path
         id="path5838"
         style="fill:none;stroke:#000000;stroke-width:0.890183px"
         d="M 68.472698,495.55683 H 211.80044" /><path
         id="text5889"
         style="fill:#08b2f4;fill-opacity:1;stroke-width:0.765347"
         d="m 186.71708,485.00103 h -8.33921 v -2.73772 h 8.33921 v 2.73772 m 13.62308,7.09685 h -11.30105 v -2.1755 c 2.82526,-3.50363 4.64408,-5.82578 5.45642,-6.95835 0.82673,-1.13256 1.50249,-2.32215 2.04167,-3.56065 0.53917,-1.25478 0.81235,-2.50957 0.81235,-3.7562 0,-1.18146 -0.34507,-2.14292 -1.0424,-2.8844 -0.68295,-0.74961 -1.58877,-1.13254 -2.72462,-1.13254 -1.02802,0 -2.31484,0.3422 -3.87486,1.01032 l -0.40258,-2.34659 c 1.45937,-0.71703 3.01218,-1.07552 4.65846,-1.07552 1.826,0 3.29973,0.57849 4.40684,1.73552 1.12866,1.14069 1.6894,2.6725 1.6894,4.5954 0,1.26295 -0.25161,2.50145 -0.76204,3.70735 -0.50322,1.19774 -1.1646,2.3792 -1.99133,3.55249 -0.82674,1.15702 -2.45864,3.28362 -4.90287,6.39614 h 7.93661 v 2.89253 m 9.61884,-22.87943 c 2.04885,0 3.59448,1.00219 4.64406,3.02287 1.04959,2.01256 1.57439,4.91321 1.57439,8.68571 0,3.72363 -0.5248,6.59171 -1.57439,8.59611 -1.04958,2.00439 -2.59521,3.00658 -4.64406,3.00658 -2.04167,0 -3.58731,-1.01035 -4.63689,-3.02289 -1.04959,-2.02068 -1.5672,-4.87246 -1.5672,-8.5798 0,-3.74803 0.51761,-6.63244 1.5672,-8.65311 1.04958,-2.037 2.59522,-3.05547 4.63689,-3.05547 m 0,20.95653 c 1.17179,0 2.04166,-0.71704 2.62397,-2.15108 0.5895,-1.44217 0.88424,-3.80509 0.88424,-7.09687 0,-3.31621 -0.29474,-5.69541 -0.88424,-7.12945 -0.58231,-1.44218 -1.45218,-2.16734 -2.62397,-2.16734 -1.15024,0 -2.0201,0.70073 -2.60241,2.10216 -0.57512,1.39329 -0.86987,3.7888 -0.86987,7.19463 0,3.36511 0.29475,5.74431 0.86987,7.14578 0.58231,1.40144 1.45217,2.10217 2.60241,2.10217" /><g
         id="g8343"
         transform="matrix(0.76535345,0,0,0.76535345,-118.88582,-38.808343)"><path
           id="path5834"
           style="fill:none;stroke:#000000;stroke-width:1.0925px"
           d="M 261.8,563.35 H 427.02" /><path
           id="text5893"
           style="fill:#23a41e"
           d="m 424.9,528.12 c -2.33,0 -4.09,1.15 -5.28,3.46 -1.16,2.29 -1.75,5.74 -1.75,10.35 0,4.6 0.59,8.05 1.75,10.36 1.19,2.29 2.95,3.43 5.28,3.43 2.35,0 4.11,-1.14 5.28,-3.43 1.18,-2.31 1.77,-5.76 1.77,-10.36 0,-4.61 -0.59,-8.06 -1.77,-10.35 -1.17,-2.31 -2.93,-3.46 -5.28,-3.46 m 0,-3.59 c 3.76,0 6.63,1.49 8.6,4.47 2,2.96 2.99,7.27 2.99,12.93 0,5.65 -0.99,9.96 -2.99,12.94 -1.97,2.97 -4.84,4.45 -8.6,4.45 -3.76,0 -6.63,-1.48 -8.62,-4.45 -1.98,-2.98 -2.97,-7.29 -2.97,-12.94 0,-5.66 0.99,-9.97 2.97,-12.93 1.99,-2.98 4.86,-4.47 8.62,-4.47" /></g><path
         id="path5826"
         style="fill:none;stroke:#000000;stroke-width:0.836148px"
         d="M 81.483707,289.11805 H 207.93541" /><path
         id="text5901"
         style="fill:#000000;stroke-width:0.765352"
         d="m 199.31752,285.26833 h -12.03136 v -2.05114 c 3.00785,-3.28339 4.94419,-5.46464 5.81669,-6.52847 0.8725,-1.06384 1.59194,-2.18126 2.16595,-3.35224 0.57402,-1.17101 0.86485,-2.34966 0.86485,-3.52828 0,-1.10211 -0.36736,-2.00523 -1.10976,-2.7017 -0.72708,-0.70414 -1.69143,-1.06383 -2.89303,-1.06383 -1.10211,0 -2.47209,0.31378 -4.13291,0.94135 l -0.4286,-2.19656 c 1.55367,-0.67349 3.20683,-1.01792 4.95949,-1.01792 1.944,0 3.51298,0.54341 4.69926,1.63022 1.19396,1.07914 1.79093,2.51802 1.79093,4.32423 0,1.18632 -0.26786,2.34199 -0.81126,3.48238 -0.53576,1.12505 -1.23988,2.23482 -2.12003,3.32926 -0.87251,1.08681 -2.61751,3.09204 -5.21972,6.01569 h 8.4495 v 2.71701 m 10.24043,-21.49879 c 2.18125,0 3.83443,0.94906 4.94418,2.84711 1.11742,1.89042 1.67613,4.60745 1.67613,8.15867 0,3.49768 -0.55871,6.19171 -1.67613,8.0745 -1.10975,1.88276 -2.76293,2.82415 -4.94418,2.82415 -2.1736,0 -3.81911,-0.94902 -4.93653,-2.83947 -1.10976,-1.89807 -1.66847,-4.58447 -1.66847,-8.05918 0,-3.52062 0.55871,-6.22997 1.66847,-8.1357 1.11742,-1.91339 2.76293,-2.87008 4.93653,-2.87008 m 0,19.69254 c 1.24752,0 2.1736,-0.6735 2.79355,-2.02053 0.62758,-1.35467 0.94137,-3.57419 0.94137,-6.66623 0,-3.12263 -0.31379,-5.34982 -0.94137,-6.69682 -0.61995,-1.35468 -1.54603,-2.03583 -2.79355,-2.03583 -1.22456,0 -2.15064,0.65819 -2.76293,1.97459 -0.61993,1.30875 -0.93373,3.55888 -0.93373,6.75806 0,3.16092 0.3138,5.39573 0.93373,6.71217 0.61229,1.3164 1.53837,1.97459 2.76293,1.97459" /><path
         id="text5920"
         style="fill:#000000;stroke:#ffffff;stroke-width:0.903269"
         d="m 173.59399,560.52004 c 2.02053,0 3.74258,0.71177 5.15848,2.12768 1.42356,1.42355 2.13535,3.14561 2.13535,5.16614 0,1.99757 -0.71179,3.71196 -2.13535,5.13551 -1.4159,1.41591 -3.13795,2.12769 -5.15848,2.12769 -1.99757,0 -3.71196,-0.71178 -5.13552,-2.12769 -1.42356,-1.42355 -2.12768,-3.13794 -2.12768,-5.13551 0,-2.02053 0.70412,-3.74259 2.12768,-5.16614 1.42356,-1.41591 3.13795,-2.12768 5.13552,-2.12768 m 0,11.77113 c 1.24753,0 2.30371,-0.44391 3.16092,-1.31639 0.88015,-0.88015 1.31639,-1.93636 1.31639,-3.16092 0,-1.23222 -0.43624,-2.27312 -1.31639,-3.13794 -0.85721,-0.85721 -1.91339,-1.28579 -3.16092,-1.28579 -1.22456,0 -2.2731,0.42858 -3.13029,1.28579 -0.84189,0.86482 -1.26283,1.90572 -1.26283,3.13794 0,1.22456 0.42094,2.28077 1.26283,3.16092 0.85719,0.87248 1.90573,1.31639 3.13029,1.31639 m 40.92345,23.01418 c -3.02314,2.48741 -6.57439,3.73493 -10.66902,3.73493 -4.99776,0 -9.04648,-1.81391 -12.13851,-5.44933 -3.08438,-3.63543 -4.63039,-8.24286 -4.63039,-13.82227 0,-5.79374 1.51539,-10.45474 4.55385,-13.98301 3.03846,-3.55126 7.11013,-5.3192 12.21505,-5.3192 1.81388,0 3.65073,0.27538 5.5335,0.84188 1.89808,0.5587 3.40583,1.2705 4.5309,2.13534 l -1.76797,3.49765 c -2.61752,-1.50774 -5.38044,-2.26542 -8.29643,-2.26542 -3.70431,0 -6.5744,1.33936 -8.61023,4.0028 -2.03585,2.67106 -3.05376,6.36773 -3.05376,11.08996 0,4.61509 1.02557,8.30409 3.08437,11.05936 2.05116,2.73997 4.91357,4.10227 8.57962,4.10227 3.26805,0 6.28355,-0.97199 9.06178,-2.91599 l 1.60724,3.29103" /><g
         id="g8135"
         transform="matrix(0.76535345,0,0,0.76535345,-118.6757,-27.562239)"><rect
           id="rect7390"
           style="fill:#000051"
           ry="12.877"
           height="25.753"
           width="166.32001"
           y="714.34998"
           x="230.39999" /><g
           id="g7380"
           transform="matrix(0.4459,-0.22922,0.22922,0.4459,92.124,492.33)"><circle
             id="path6650"
             style="fill:#b5dfe0;stroke:#000000;stroke-width:2;stroke-linejoin:round"
             transform="translate(-0.31884)"
             cx="69.209404"
             cy="562.20789"
             r="18.013407" /><path
             id="path7378"
             style="fill:none;stroke:#000000;stroke-width:1px"
             d="M 50.288,562.21 H 87.493" /></g><g
           id="g7384"
           transform="matrix(0.39401,0.31003,-0.31003,0.39401,522.57,484.35)"><circle
             id="path7386"
             style="fill:#b5dfe0;stroke:#000000;stroke-width:2;stroke-linejoin:round"
             transform="translate(-0.31884)"
             cx="69.209404"
             cy="562.20789"
             r="18.013407" /><path
             id="path7388"
             style="fill:none;stroke:#000000;stroke-width:1px"
             d="M 50.288,562.21 H 87.493" /></g></g><path
         id="rect8121"
         style="fill:#000051;stroke-width:0.765352"
         d="M 67.516007,102.89991 H 175.10174 c 5.46463,0 9.85775,4.40078 9.85775,9.85775 0,5.46462 -4.39312,9.85774 -9.85775,9.85774 H 67.516007 c -5.45697,0 -9.857751,-4.39312 -9.857751,-9.85774 0,-5.45697 4.400781,-9.85775 9.857751,-9.85775 z" /><g
         id="g8123"
         transform="matrix(0.33710756,0.18330216,-0.18330216,0.33710756,153.59531,-89.394379)"><circle
           id="path8125"
           style="fill:#b5dfe0;stroke:#000000;stroke-width:2;stroke-linejoin:round"
           transform="translate(-0.31884)"
           cx="69.209404"
           cy="562.20789"
           r="18.013407" /><path
           id="path8127"
           style="fill:none;stroke:#000000;stroke-width:1px"
           d="M 50.288,562.21 H 87.493" /></g><g
         id="g8129"
         transform="matrix(0.38035771,-0.05067864,0.05067864,0.38035771,113.74335,-97.591311)"><circle
           id="path8131"
           style="fill:#b5dfe0;stroke:#000000;stroke-width:2;stroke-linejoin:round"
           transform="translate(-0.31884)"
           cx="69.209404"
           cy="562.20789"
           r="18.013407" /><path
           id="path8133"
           style="fill:none;stroke:#000000;stroke-width:1px"
           d="M 50.288,562.21 H 87.493" /></g><g
         id="g10714"
         transform="matrix(2.8926745,0,0,2.8926745,-29.297393,-34.58915)"><ellipse
           style="fill:#08b2f4;fill-opacity:1;stroke:#08b2f4;stroke-width:3.82296;stroke-opacity:1;paint-order:markers fill stroke"
           id="path5733"
           cx="52.064659"
           cy="207.5647"
           rx="6.1311402"
           ry="6.3787527" /><rect
           style="fill:#08b2f4;fill-opacity:1;stroke:#08b2f4;stroke-width:3.55973;stroke-opacity:1;paint-order:markers fill stroke"
           id="rect10687"
           width="2.5819759"
           height="0.60316664"
           x="50.767887"
           y="200.00722" /></g></g><rect
       style="fill:#08b2f4;fill-opacity:1;stroke:#08b2f4;stroke-width:5.24857;stroke-opacity:1;paint-order:markers fill stroke"
       id="temperatur"
       width="13.057207"
       height="225.15959"
       x="114.78407"
       y="291.32425" /><rect
       style="fill:none;fill-opacity:1;stroke:none;stroke-width:3.82296;stroke-opacity:1;paint-order:markers fill stroke"
       id="rect11229"
       width="245.09691"
       height="649.43372"
       x="-0.41164437"
       y="7.6381216" /></g></svg>
